<svg xmlns="http://www.w3.org/2000/svg" viewBox="0 0 256 256">
  <defs>
    <linearGradient id="c" x1="0" y1="0" x2="1" y2="1"><stop stop-color="#b9e7d8"/><stop offset="1" stop-color="#66b59c"/></linearGradient>
    <linearGradient id="s" x1="0" y1="0" x2="1" y2="1"><stop stop-color="#f4c5a4"/><stop offset="1" stop-color="#d79774"/></linearGradient>
    <filter id="sh" x="-40%" y="-40%" width="180%" height="190%"><feDropShadow dx="0" dy="5" stdDeviation="4" flood-color="#315e6c" flood-opacity=".24"/></filter>
    <g id="base" filter="url(#sh)">
      <ellipse cx="64" cy="113" rx="27" ry="6" fill="#315e6c" opacity=".18"/>
      <path d="M47 88h14v24c0 5-4 8-9 8s-8-3-8-8Z" fill="#2e5067"/><path d="M67 88h14l3 24c1 5-3 8-8 8s-8-3-9-8Z" fill="#2e5067"/>
      <path d="M41 59c11-8 35-8 46 0l-4 40H45Z" fill="url(#c)"/><path d="M58 59h12v38H58Z" fill="#fff"/><circle cx="64" cy="71" r="3" fill="#347963"/>
      <rect x="75" y="76" width="20" height="27" rx="4" fill="#eff8ff" stroke="#3f7297" stroke-width="3"/>
      <circle cx="64" cy="35" r="22" fill="url(#s)"/><path d="M42 35c-1-17 9-27 24-28 15 0 24 11 22 28-8-7-18-10-31-9-4 5-9 8-15 9Z" fill="#30475a"/>
      <g fill="none" stroke="#3675af" stroke-width="3"><circle cx="55" cy="36" r="6"/><circle cx="73" cy="36" r="6"/><path d="M61 36h6"/></g><circle cx="55" cy="36" r="1.7" fill="#263948"/><circle cx="73" cy="36" r="1.7" fill="#263948"/><path d="M58 46c4 3 8 3 12 0" fill="none" stroke="#94554b" stroke-width="2" stroke-linecap="round"/>
    </g>
  </defs>
  <g><use href="#base"/><path d="M45 65c-10 8-11 18-7 28M83 65c10 8 11 18 7 28" fill="none" stroke="url(#s)" stroke-width="9" stroke-linecap="round"/></g>
  <g transform="translate(128)"><use href="#base"/><path d="M45 65c-14 9-17 20-13 28" fill="none" stroke="url(#s)" stroke-width="9" stroke-linecap="round"/><path d="M83 65c12 5 16 13 18 22" fill="none" stroke="url(#s)" stroke-width="9" stroke-linecap="round"/><circle cx="102" cy="90" r="5" fill="url(#s)"/></g>
  <g transform="translate(0 128)"><use href="#base"/><path d="M45 65c-13 1-19-6-24-14" fill="none" stroke="url(#s)" stroke-width="9" stroke-linecap="round"/><circle cx="19" cy="48" r="5" fill="url(#s)"/><path d="M83 65c9 0 12 7 11 15" fill="none" stroke="url(#s)" stroke-width="9" stroke-linecap="round"/></g>
  <g transform="translate(128 128)"><use href="#base"/><path d="M45 65c-10 1-15-6-18-15" fill="none" stroke="url(#s)" stroke-width="9" stroke-linecap="round"/><circle cx="26" cy="47" r="5" fill="url(#s)"/><path d="M83 65c12-4 16-15 17-25" fill="none" stroke="url(#s)" stroke-width="9" stroke-linecap="round"/><circle cx="101" cy="36" r="5" fill="url(#s)"/><path d="M101 31v-11" stroke="#d79774" stroke-width="5" stroke-linecap="round"/></g>
</svg>
